<?xml version="1.0" encoding="UTF-8" standalone="no"?>
<!-- Created with Inkscape (http://www.inkscape.org/) -->

<svg
   width="59.686493mm"
   height="59.686489mm"
   viewBox="0 0 59.686493 59.686489"
   version="1.1"
   id="svg1"
   xml:space="preserve"
   xmlns:inkscape="http://www.inkscape.org/namespaces/inkscape"
   xmlns:sodipodi="http://sodipodi.sourceforge.net/DTD/sodipodi-0.dtd"
   xmlns="http://www.w3.org/2000/svg"
   xmlns:svg="http://www.w3.org/2000/svg"><sodipodi:namedview
     id="namedview1"
     pagecolor="#505050"
     bordercolor="#ffffff"
     borderopacity="1"
     inkscape:showpageshadow="0"
     inkscape:pageopacity="0"
     inkscape:pagecheckerboard="1"
     inkscape:deskcolor="#505050"
     inkscape:document-units="mm"
     inkscape:export-bgcolor="#ffffff00"><inkscape:page
       x="0"
       y="0"
       width="59.686493"
       height="59.686489"
       id="page2"
       margin="0"
       bleed="0" /></sodipodi:namedview><defs
     id="defs1" /><g
     inkscape:label="Layer 1"
     inkscape:groupmode="layer"
     id="layer1"
     transform="translate(-6.4587245,-94.528244)"><g
       id="g26"><rect
         style="fill:#141414;fill-opacity:1;stroke:none;stroke-width:8.13745;stroke-linecap:square;stroke-linejoin:bevel;stroke-opacity:1;paint-order:markers stroke fill"
         id="rect1-2-1"
         width="59.686493"
         height="59.686493"
         x="6.458725"
         y="94.528244"
         ry="9.7362242" /><path
         style="fill:#e5e5e5;fill-opacity:1;stroke:none;stroke-width:10.8786;stroke-linecap:square;stroke-linejoin:bevel;stroke-opacity:1;paint-order:markers stroke fill"
         d="m 15.459476,144.46572 h 16.977158 l 7.00308,-7.00309 v 7.21531 h 7.18497 l 10.89873,-10.89875 v -25.69311 l -15.72659,15.72661 v 1.25055 l -4.19503,4.19503 h -7.075086 v -9.19723 l 5.942006,-5.942 V 102.2047 h -8.427948 l -12.960243,12.96025 z"
         id="path1-6-1" /><rect
         style="opacity:1;fill:#191919;fill-opacity:1;stroke:none;stroke-width:0.569816;stroke-linecap:square;stroke-linejoin:miter;stroke-dasharray:none;stroke-opacity:1;paint-order:fill markers stroke"
         id="rect4"
         width="11.419145"
         height="11.602143"
         x="17.934326"
         y="130.81099"
         ry="0" /><path
         style="fill:#e5e5e5;fill-opacity:1;stroke-width:0.550076"
         d="m 21.584008,139.67096 -1.972325,-2.74218 h 1.356936 1.356955 v -4.11324 -4.11326 h 1.318324 1.318306 v 4.11326 4.11324 h 1.356955 1.356936 l -1.972325,2.74218 c -1.084795,1.50817 -2.011721,2.74217 -2.059872,2.74217 -0.04822,0 -0.975095,-1.234 -2.05989,-2.74217 z"
         id="path15-4-3"
         sodipodi:nodetypes="scccccccccccsss" /></g></g></svg>
